<mxfile host="app.diagrams.net" modified="2024-03-25T22:49:59.076Z" agent="Mozilla/5.0 (Windows NT 10.0; Win64; x64) AppleWebKit/537.36 (KHTML, like Gecko) Chrome/122.0.0.0 Safari/537.36" etag="6gsqxJDEDwSOInNpwOEJ" version="24.0.8" type="github">
  <diagram id="C5RBs43oDa-KdzZeNtuy" name="Page-1">
    <mxGraphModel dx="797" dy="368" grid="1" gridSize="10" guides="1" tooltips="1" connect="1" arrows="1" fold="1" page="1" pageScale="1" pageWidth="827" pageHeight="1169" math="0" shadow="0">
      <root>
        <mxCell id="WIyWlLk6GJQsqaUBKTNV-0" />
        <mxCell id="WIyWlLk6GJQsqaUBKTNV-1" parent="WIyWlLk6GJQsqaUBKTNV-0" />
        <mxCell id="0MhqvEAekK9UAT_BCDDx-0" value="Médico" style="rounded=0;whiteSpace=wrap;html=1;" vertex="1" parent="WIyWlLk6GJQsqaUBKTNV-1">
          <mxGeometry x="160" y="80" width="120" height="60" as="geometry" />
        </mxCell>
        <mxCell id="0MhqvEAekK9UAT_BCDDx-2" value="" style="rounded=0;whiteSpace=wrap;html=1;" vertex="1" parent="WIyWlLk6GJQsqaUBKTNV-1">
          <mxGeometry x="320" y="80" width="120" height="60" as="geometry" />
        </mxCell>
        <mxCell id="0MhqvEAekK9UAT_BCDDx-3" value="" style="rounded=0;whiteSpace=wrap;html=1;" vertex="1" parent="WIyWlLk6GJQsqaUBKTNV-1">
          <mxGeometry x="480" y="80" width="120" height="60" as="geometry" />
        </mxCell>
        <mxCell id="0MhqvEAekK9UAT_BCDDx-4" value="" style="ellipse;whiteSpace=wrap;html=1;fillStyle=solid;fillColor=#000000;" vertex="1" parent="WIyWlLk6GJQsqaUBKTNV-1">
          <mxGeometry x="190" y="160" width="10" height="10" as="geometry" />
        </mxCell>
        <mxCell id="0MhqvEAekK9UAT_BCDDx-5" value="CRM" style="text;html=1;align=center;verticalAlign=middle;resizable=0;points=[];autosize=1;strokeColor=none;fillColor=none;" vertex="1" parent="WIyWlLk6GJQsqaUBKTNV-1">
          <mxGeometry x="200" y="150" width="50" height="30" as="geometry" />
        </mxCell>
        <mxCell id="0MhqvEAekK9UAT_BCDDx-6" value="Especialidade" style="text;html=1;align=center;verticalAlign=middle;resizable=0;points=[];autosize=1;strokeColor=none;fillColor=none;" vertex="1" parent="WIyWlLk6GJQsqaUBKTNV-1">
          <mxGeometry x="200" y="210" width="100" height="30" as="geometry" />
        </mxCell>
        <mxCell id="0MhqvEAekK9UAT_BCDDx-7" value="" style="ellipse;whiteSpace=wrap;html=1;fillStyle=solid;fillColor=#FFFFFF;gradientColor=none;" vertex="1" parent="WIyWlLk6GJQsqaUBKTNV-1">
          <mxGeometry x="190" y="190" width="10" height="10" as="geometry" />
        </mxCell>
        <mxCell id="0MhqvEAekK9UAT_BCDDx-8" value="Nome" style="text;html=1;align=center;verticalAlign=middle;resizable=0;points=[];autosize=1;strokeColor=none;fillColor=none;" vertex="1" parent="WIyWlLk6GJQsqaUBKTNV-1">
          <mxGeometry x="200" y="180" width="60" height="30" as="geometry" />
        </mxCell>
        <mxCell id="0MhqvEAekK9UAT_BCDDx-9" value="" style="ellipse;whiteSpace=wrap;html=1;fillStyle=solid;" vertex="1" parent="WIyWlLk6GJQsqaUBKTNV-1">
          <mxGeometry x="190" y="220" width="10" height="10" as="geometry" />
        </mxCell>
        <mxCell id="0MhqvEAekK9UAT_BCDDx-10" value="Telefone" style="text;html=1;align=center;verticalAlign=middle;resizable=0;points=[];autosize=1;strokeColor=none;fillColor=none;" vertex="1" parent="WIyWlLk6GJQsqaUBKTNV-1">
          <mxGeometry x="200" y="240" width="70" height="30" as="geometry" />
        </mxCell>
        <mxCell id="0MhqvEAekK9UAT_BCDDx-11" value="" style="ellipse;whiteSpace=wrap;html=1;fillStyle=solid;" vertex="1" parent="WIyWlLk6GJQsqaUBKTNV-1">
          <mxGeometry x="190" y="250" width="10" height="10" as="geometry" />
        </mxCell>
        <mxCell id="0MhqvEAekK9UAT_BCDDx-12" value="E-mail" style="text;html=1;align=center;verticalAlign=middle;resizable=0;points=[];autosize=1;strokeColor=none;fillColor=none;" vertex="1" parent="WIyWlLk6GJQsqaUBKTNV-1">
          <mxGeometry x="200" y="270" width="60" height="30" as="geometry" />
        </mxCell>
        <mxCell id="0MhqvEAekK9UAT_BCDDx-13" value="" style="ellipse;whiteSpace=wrap;html=1;fillStyle=solid;" vertex="1" parent="WIyWlLk6GJQsqaUBKTNV-1">
          <mxGeometry x="190" y="280" width="10" height="10" as="geometry" />
        </mxCell>
        <mxCell id="0MhqvEAekK9UAT_BCDDx-14" value="Endereço" style="text;html=1;align=center;verticalAlign=middle;resizable=0;points=[];autosize=1;strokeColor=none;fillColor=none;fontStyle=2" vertex="1" parent="WIyWlLk6GJQsqaUBKTNV-1">
          <mxGeometry x="200" y="300" width="70" height="30" as="geometry" />
        </mxCell>
        <mxCell id="0MhqvEAekK9UAT_BCDDx-15" value="" style="ellipse;whiteSpace=wrap;html=1;fillStyle=solid;fillColor=#FFFFFF;" vertex="1" parent="WIyWlLk6GJQsqaUBKTNV-1">
          <mxGeometry x="190" y="310" width="10" height="10" as="geometry" />
        </mxCell>
        <mxCell id="0MhqvEAekK9UAT_BCDDx-18" value="" style="line;strokeWidth=2;html=1;" vertex="1" parent="WIyWlLk6GJQsqaUBKTNV-1">
          <mxGeometry x="200" y="390" width="160" height="10" as="geometry" />
        </mxCell>
        <mxCell id="0MhqvEAekK9UAT_BCDDx-19" value="" style="line;strokeWidth=1;direction=south;html=1;fillColor=#f5f5f5;fontColor=#333333;strokeColor=#666666;" vertex="1" parent="WIyWlLk6GJQsqaUBKTNV-1">
          <mxGeometry x="160" y="140" width="10" height="176" as="geometry" />
        </mxCell>
        <mxCell id="0MhqvEAekK9UAT_BCDDx-20" value="" style="line;strokeWidth=1;html=1;fillColor=#f5f5f5;fontColor=#333333;strokeColor=#666666;" vertex="1" parent="WIyWlLk6GJQsqaUBKTNV-1">
          <mxGeometry x="165" y="160" width="25" height="10" as="geometry" />
        </mxCell>
        <mxCell id="0MhqvEAekK9UAT_BCDDx-21" value="" style="line;strokeWidth=1;html=1;fillColor=#f5f5f5;fontColor=#333333;strokeColor=#666666;" vertex="1" parent="WIyWlLk6GJQsqaUBKTNV-1">
          <mxGeometry x="165" y="190" width="25" height="10" as="geometry" />
        </mxCell>
        <mxCell id="0MhqvEAekK9UAT_BCDDx-22" value="" style="line;strokeWidth=1;html=1;fillColor=#f5f5f5;fontColor=#333333;strokeColor=#666666;" vertex="1" parent="WIyWlLk6GJQsqaUBKTNV-1">
          <mxGeometry x="165" y="220" width="25" height="10" as="geometry" />
        </mxCell>
        <mxCell id="0MhqvEAekK9UAT_BCDDx-23" value="" style="line;strokeWidth=1;html=1;fillColor=#f5f5f5;fontColor=#333333;strokeColor=#666666;" vertex="1" parent="WIyWlLk6GJQsqaUBKTNV-1">
          <mxGeometry x="165" y="250" width="25" height="10" as="geometry" />
        </mxCell>
        <mxCell id="0MhqvEAekK9UAT_BCDDx-24" value="" style="line;strokeWidth=1;html=1;fillColor=#f5f5f5;fontColor=#333333;strokeColor=#666666;" vertex="1" parent="WIyWlLk6GJQsqaUBKTNV-1">
          <mxGeometry x="165" y="280" width="25" height="10" as="geometry" />
        </mxCell>
        <mxCell id="0MhqvEAekK9UAT_BCDDx-25" value="" style="line;strokeWidth=1;html=1;fillColor=#f5f5f5;fontColor=#333333;strokeColor=#666666;" vertex="1" parent="WIyWlLk6GJQsqaUBKTNV-1">
          <mxGeometry x="165" y="310" width="25" height="10" as="geometry" />
        </mxCell>
      </root>
    </mxGraphModel>
  </diagram>
</mxfile>
